<?xml version="1.0" encoding="iso-8859-1"?>
<!-- Generator: Adobe Illustrator 19.0.0, SVG Export Plug-In . SVG Version: 6.00 Build 0)  -->
<svg version="1.1" id="Capa_1" xmlns="http://www.w3.org/2000/svg" xmlns:xlink="http://www.w3.org/1999/xlink" x="0px" y="0px"
	 viewBox="0 0 487.77 487.77" style="enable-background:new 0 0 487.77 487.77;" xml:space="preserve">
<g>
	<path d="M486.2,210.26c-6.3-18.8-26.1-21.9-44.8-25c-19.8-3.1-42.7-6.3-59.4-24c-76.1-83.4-141.8-101.1-183.5-102.1
		c-17.7-0.5-34.6,2.2-50.3,7.8c-3.8-37.4-35.5-66.8-73.9-66.8c-41,0-74.3,33.3-74.3,74.3c0,38.8,29.8,70.7,67.7,74
		c-5.6,15.8-8.3,32.6-7.8,50.4c1,41.7,19.8,106.3,102.2,183.5c17.7,16.7,20.9,39.6,24,59.4c3.1,18.8,6,39.5,25,44.8
		c20.1,5.6,47-11,94-54.5c17.1,16.3,40.2,25.9,64.3,25.9c51.2,0,92.9-41.7,92.9-92.9c0-24.6-9.8-48-26.8-65.3
		C485,245.76,491.6,228.06,486.2,210.26z M40.9,74.46c0-18.4,14.9-33.3,33.3-33.3s33.3,14.9,33.3,33.3s-14.9,33.3-33.3,33.3
		S40.9,92.86,40.9,74.46z M369.3,416.96c-13,0-25.2-4.8-34.6-13.1c11.1-11.1,63-65.1,72.4-74.3c8.9,9.5,14.1,22.2,14.1,35.5
		C421.2,393.66,397.9,416.96,369.3,416.96z M226.6,444.86c0-3.1-9.4-65.7-37.5-91.7c-57.3-53.2-87.6-106.3-88.6-154.3
		c0-28.1,18.6-100.2,98-99c48,0.7,101.1,31.3,154.3,88.6c26.1,28.1,88.6,37.5,91.7,37.5C429.8,252.76,252.5,430.56,226.6,444.86z"/>
</g>
<g>
</g>
<g>
</g>
<g>
</g>
<g>
</g>
<g>
</g>
<g>
</g>
<g>
</g>
<g>
</g>
<g>
</g>
<g>
</g>
<g>
</g>
<g>
</g>
<g>
</g>
<g>
</g>
<g>
</g>
</svg>
