<?xml version="1.0" encoding="utf-8"?>
<!-- Generator: Adobe Illustrator 21.1.0, SVG Export Plug-In . SVG Version: 6.00 Build 0)  -->
<svg version="1.1" id="Слой_1" xmlns="http://www.w3.org/2000/svg" xmlns:xlink="http://www.w3.org/1999/xlink" x="0px" y="0px"
	 viewBox="0 0 30.2 30.2" style="enable-background:new 0 0 30.2 30.2;" xml:space="preserve">
<style type="text/css">
	.st0{fill:#FFFFFF;fill-opacity:0;}
	.st1{fill:none;stroke:#898989;stroke-width:1.4;stroke-linecap:round;stroke-linejoin:round;stroke-miterlimit:10;}
</style>
<g>
	<rect class="st0" width="30.2" height="30.2"/>
	<path class="st1" d="M6.1,10.3L6,11.1c-0.6,4.1-0.6,8.3,0,12.4l0.1,0.7c0.2,1.1,1.1,1.9,2.2,1.9H22c1.1,0,2-0.8,2.2-1.9l0.1-0.7
		c0.6-4.1,0.6-8.3,0-12.4l-0.1-0.7C24,9.3,23.1,8.5,22,8.5H8.2C7.1,8.5,6.2,9.3,6.1,10.3z"/>
	<path class="st1" d="M13.2,26.1h3.7c0.8-5.9,0.8-11.7,0-17.6h-3.7C12.4,14.4,12.4,20.2,13.2,26.1z"/>
	<path class="st1" d="M15.1,8.5c0,0-0.4-4.4-5.4-4.4C6.9,4,6.8,8.5,10,8.5S15.1,8.5,15.1,8.5z"/>
	<path class="st1" d="M15.1,8.5c0,0,0.4-4.4,5.4-4.4c2.8,0,2.8,4.4-0.3,4.4S15.1,8.5,15.1,8.5z"/>
	<line class="st1" x1="6.3" y1="13" x2="12.7" y2="13"/>
	<line class="st1" x1="23.8" y1="13" x2="17.4" y2="13"/>
</g>
</svg>
