<?xml version="1.0" encoding="utf-8"?>
<!-- Generator: Adobe Illustrator 16.0.0, SVG Export Plug-In . SVG Version: 6.00 Build 0)  -->
<!DOCTYPE svg PUBLIC "-//W3C//DTD SVG 1.1//EN" "http://www.w3.org/Graphics/SVG/1.1/DTD/svg11.dtd">
<svg version="1.1" id="Слой_1" xmlns="http://www.w3.org/2000/svg" xmlns:xlink="http://www.w3.org/1999/xlink" x="0px" y="0px"
	 width="841.89px" height="141.73px" viewBox="0 0 841.89 141.73" enable-background="new 0 0 841.89 141.73" xml:space="preserve">
<g>
	<g>
		<path fill="#fe5655" d="M422.538,13.53c0,0-17.74,17.695-30.902,40.753c-10.301,17.695-18.312,39.146,2.289,56.841
			c19.458,16.623,48.069,10.188,58.941-6.972c8.584-14.478,6.867-31.102-7.438-46.116C429.405,39.269,423.683,31.226,422.538,13.53z
			"/>
		<path fill="#FFFFFF" d="M397.931,79.485c0,0-5.722,13.406-1.145,20.914c5.149,8.043,13.162,11.26,18.313,8.579
			c5.149-2.146,6.294-9.652,0.572-12.333c-2.861-1.609-8.012-3.217-12.018-5.897C400.791,88.066,398.502,84.848,397.931,79.485z"/>
	</g>
	<path fill="#515183" d="M99.554,43.019v15.288H83.847v51.598H64.584V58.307H48.762V43.019H99.554z"/>
	<path fill="#515183" d="M144.153,83.151v26.754h-19.835V43.019h19.835v24.175h18.116V43.019h19.835v66.886h-19.835V83.151H144.153z
		"/>
	<path fill="#515183" d="M231.863,67.767h21.326v15.289h-21.326v10.893h24.307v15.957h-44.027V43.019h43.11v15.193h-23.39V67.767z"
		/>
	<path fill="#fe5655" d="M356.445,109.905H336.61V79.616l-12.956,14.332h-2.178l-12.842-14.332v30.289h-19.835V42.637h6.994
		l26.829,28.953l26.829-28.953h6.993V109.905z"/>
	<g>
		<path fill="#fe5655" d="M522.16,109.905h-42.078V43.02h19.835v51.216h22.243V109.905z"/>
		<path fill="#fe5655" d="M580.747,110.86c-21.096,0-35.198-13.759-35.198-34.397c0-20.64,14.103-34.398,35.198-34.398
			c20.982,0,34.97,13.759,34.97,34.398C615.717,97.102,601.729,110.86,580.747,110.86z M580.747,94.521
			c9.058,0,15.021-7.357,15.021-18.059c0-10.702-5.963-17.964-15.021-17.964c-9.287,0-15.479,7.262-15.479,17.964
			C565.269,87.164,571.46,94.521,580.747,94.521z"/>
		<path fill="#fe5655" d="M656.361,69.201c2.063,0,6.535,0.19,8.828-1.052c2.866-1.528,3.783-5.542,5.732-13.568
			c1.949-8.121,8.943-14.714,25.453-11.466v11.753c-3.554-0.287-6.306,0.669-7.338,4.777c-2.178,8.026-4.586,13.664-8.14,17.772
			c6.191,9.938,12.153,19.97,18.573,29.907v2.58h-22.472L663.47,84.106c-1.605,0.287-4.931,0.287-7.108,0.287v25.512h-19.836V43.02
			h19.836V69.201z"/>
		<path fill="#fe5655" d="M757.569,110.86c-21.096,0-35.198-13.759-35.198-34.397c0-20.64,14.103-34.398,35.198-34.398
			c20.982,0,34.97,13.759,34.97,34.398C792.539,97.102,778.552,110.86,757.569,110.86z M757.569,94.521
			c9.058,0,15.021-7.357,15.021-18.059c0-10.702-5.963-17.964-15.021-17.964c-9.287,0-15.479,7.262-15.479,17.964
			C742.091,87.164,748.282,94.521,757.569,94.521z"/>
	</g>
</g>
</svg>
